<svg width="160" height="160" viewBox="0 0 160 160" fill="none" xmlns="http://www.w3.org/2000/svg">
<g clip-path="url(#clip0_3678_156780)">
<rect width="160" height="160" rx="80" fill="#8B5555"/>
<circle cx="80" cy="80" r="80" fill="#D0D0D0"/>
<circle cx="80" cy="80" r="80" fill="#D9D9D9"/>
<path d="M53.3334 66.6667C53.3334 81.3943 65.2724 93.3333 80 93.3333C94.7276 93.3333 106.667 81.3943 106.667 66.6667C106.667 51.9391 94.7276 40 80 40C65.2724 40 53.3334 51.9391 53.3334 66.6667Z" fill="#6D6871"/>
<path fill-rule="evenodd" clip-rule="evenodd" d="M19.9995 133.333C34.648 116.967 55.9356 106.667 79.629 106.667C103.322 106.667 124.61 116.967 139.259 133.333C124.61 149.7 103.322 160 79.629 160C55.9356 160 34.648 149.7 19.9995 133.333Z" fill="#707070"/>
<rect opacity="0.76" x="3" y="112" width="153" height="49" fill="#372045"/>
<path d="M80 134C78.374 134 77 135.374 77 137C77 138.626 78.374 140 80 140C81.626 140 83 138.626 83 137C83 135.374 81.626 134 80 134ZM80 138.5C79.2013 138.5 78.5 137.799 78.5 137C78.5 136.201 79.2013 135.5 80 135.5C80.7987 135.5 81.5 136.201 81.5 137C81.5 137.799 80.7987 138.5 80 138.5Z" fill="white"/>
<path d="M87.2 130.667H84.8726L82.4363 128.26C82.3529 128.178 82.2537 128.112 82.1445 128.067C82.0353 128.023 81.9182 128 81.8 128H78.2C78.0818 128 77.9647 128.023 77.8555 128.067C77.7463 128.112 77.6471 128.178 77.5637 128.26L75.1274 130.667H72.8C71.8073 130.667 71 131.464 71 132.444V142.222C71 143.203 71.8073 144 72.8 144H87.2C88.1927 144 89 143.203 89 142.222V132.444C89 131.464 88.1927 130.667 87.2 130.667ZM72.8 142.222V132.444H75.5C75.7394 132.444 75.968 132.351 76.1363 132.184L78.5726 129.778H81.4274L83.8637 132.184C83.9471 132.267 84.0463 132.332 84.1555 132.377C84.2647 132.422 84.3818 132.445 84.5 132.444H87.2L87.2018 142.222H72.8Z" fill="white"/>
</g>
<defs>
<clipPath id="clip0_3678_156780">
<rect width="160" height="160" rx="80" fill="white"/>
</clipPath>
</defs>
</svg>
